{"title":"Knight.of.Cups.2015.WEBRip.480p.x264.AAC-VYTO [P2PDL]","uid":13114693,"size":427262966,"categoryP":"video","categoryS":"movies","magnet":"?xt=urn:btih:5c1ed547407e99e58d293986a8c8581943c5ffce&amp;dn=Knight.of.Cups.2015.WEBRip.480p.x264.AAC-VYTO+%5BP2PDL%5D&amp;tr=udp%3A%2F%2Ftracker.leechers-paradise.org%3A6969&amp;tr=udp%3A%2F%2Fzer0day.ch%3A1337&amp;tr=udp%3A%2F%2Fopen.demonii.com%3A1337&amp;tr=udp%3A%2F%2Ftracker.coppersurfer.tk%3A6969&amp;tr=udp%3A%2F%2Fexodus.desync.com%3A6969","seeders":0,"leechers":1,"uploader":"VYTOP2PDL","files":6,"time":1451549608,"description":"____    ____ ____    ____ .___________.  ______   \r\n     /   /      /   / |           | /  __    \r\n    /   /      /   /  `---|  |----`|  |  |  | \r\n        /     _    _/       |  |     |  |  |  | \r\n       /        |  |         |  |     |  `--'  | \r\n    __/         |__|         |__|      ______/  \r\n                                                  \r\nPresenting Small Encodes with quality for years!\r\n                                                                                                   \r\n                                                                                                   \r\n\r\nKnight.of.Cups.2015.WEBRip.480p.x264.AAC-VYTO\r\n\r\n\r\nGenre: Drama, Romance \nhttp://www.imdb.com/title/tt2101383/\r\n\r\n\r\nFormat                                   : MPEG-4\r\nFile size                                : 401 MiB\r\nDuration                                 : 1h 58mn\r\nOverall bit rate                         : 474 Kbps\r\n\r\nVideo\r\nFormat                                   : AVC\r\nBit rate                                 : 440 Kbps\r\nWidth                                    : 720 pixels\r\nHeight                                   : 304 pixels\r\nDisplay aspect ratio                     : 2.35:1\r\nFrame rate mode                          : Constant\r\nFrame rate                               : 23.976 fps\r\nBit depth                                : 8 bits\r\nStream size                              : 371 MiB (93%)\r\nWriting library                          : x264\r\n\r\nAudi\r\nFormat                                   : AAC\r\nBit rate mode                            : Variable\r\nBit rate                                 : 32.0 Kbps\r\nChannel(s)                               : 2 channels \r\nChannel positions                        : Front: L R \r\nSampling rate                            : 48.0 KHz\r\nStream size                              : 27.0 MiB (7%)\r\nLanguage                                 : English\r\n\r\nSubtitle                                 : N/a\r\n\r\nScreen Shots: (Click to view)\r\n \nhttp://ititli.com/Sv \nhttp://ititli.com/SR \nhttp://ititli.com/Sy \nhttp://ititli.com/S3 \nhttp://ititli.com/SE \nhttp://ititli.com/SQ \nhttp://ititli.com/SS \nhttp://ititli.com/SZ \nhttp://ititli.com/Sc\r\n\r\n----------------------------------------------------------------------------------------------------\r\n\r\n\r\nEncoder Notes: Looking For Early Access To Anything You Can Provide WEBDL, DVDScr, DVDR, BluRay,\r\nDirect Audio, Music Releases and Seedboxes. If You Got anything to offer please contact us.\r\n\r\nSupport us by donating BC - 1FgwdzPsd1y25Gea8wP1qni35uGCtmkRCD\r\n\r\n\r\nSend some love!\r\nFind us and join us!","torrent":{"xt":"urn:btih:5c1ed547407e99e58d293986a8c8581943c5ffce","amp;dn":"Knight.of.Cups.2015.WEBRip.480p.x264.AAC-VYTO+%5BP2PDL%5D","amp;tr":["udp%3A%2F%2Ftracker.leechers-paradise.org%3A6969","udp%3A%2F%2Fzer0day.ch%3A1337","udp%3A%2F%2Fopen.demonii.com%3A1337","udp%3A%2F%2Ftracker.coppersurfer.tk%3A6969","udp%3A%2F%2Fexodus.desync.com%3A6969"],"infoHash":"5c1ed547407e99e58d293986a8c8581943c5ffce","infoHashBuffer":{"type":"Buffer","data":[92,30,213,71,64,126,153,229,141,41,57,134,168,200,88,25,67,197,255,206]},"announce":[],"urlList":[]}}